<?xml version="1.0" encoding="UTF-8" standalone="no"?>
<!-- Created with Inkscape (http://www.inkscape.org/) -->

<svg
   xmlns:dc="http://purl.org/dc/elements/1.1/"
   xmlns:cc="http://creativecommons.org/ns#"
   xmlns:rdf="http://www.w3.org/1999/02/22-rdf-syntax-ns#"
   xmlns:svg="http://www.w3.org/2000/svg"
   xmlns="http://www.w3.org/2000/svg"
   xmlns:sodipodi="http://sodipodi.sourceforge.net/DTD/sodipodi-0.dtd"
   xmlns:inkscape="http://www.inkscape.org/namespaces/inkscape"
   width="26.488832mm"
   height="23.784773mm"
   viewBox="0 0 93.858068 84.276753"
   id="svg2"
   version="1.1"
   inkscape:version="0.91 r13725"
   sodipodi:docname="Dataverse-Logo.svg">
  <defs
     id="defs4" />
  <sodipodi:namedview
     id="base"
     pagecolor="#ffffff"
     bordercolor="#666666"
     borderopacity="1.0"
     inkscape:pageopacity="0.0"
     inkscape:pageshadow="2"
     inkscape:zoom="3.959798"
     inkscape:cx="-10.778838"
     inkscape:cy="44.078659"
     inkscape:document-units="px"
     inkscape:current-layer="layer1"
     showgrid="false"
     inkscape:window-width="1536"
     inkscape:window-height="801"
     inkscape:window-x="-8"
     inkscape:window-y="-8"
     inkscape:window-maximized="1"
     fit-margin-top="1"
     fit-margin-left="1"
     fit-margin-right="1"
     fit-margin-bottom="1" />
  <metadata
     id="metadata7">
    <rdf:RDF>
      <cc:Work
         rdf:about="">
        <dc:format>image/svg+xml</dc:format>
        <dc:type
           rdf:resource="http://purl.org/dc/dcmitype/StillImage" />
        <dc:title></dc:title>
      </cc:Work>
    </rdf:RDF>
  </metadata>
  <g
     inkscape:groupmode="layer"
     id="layer3"
     inkscape:label="Layer 2"
     style="display:none"
     sodipodi:insensitive="true"
     transform="translate(-274.9176,-387.65456)">
    <path
       d="m 313.68377,582.09485 a 107.59361,105.47353 0 0 1 -35.91372,-99.52311 107.59361,105.47353 0 0 1 70.04858,-80.18093 107.59361,105.47353 0 0 1 105.83855,19.48382 l -70.11168,80.00519 z"
       sodipodi:end="5.4221259"
       sodipodi:start="2.2774747"
       sodipodi:ry="105.47353"
       sodipodi:rx="107.59361"
       sodipodi:cy="501.87982"
       sodipodi:cx="383.5455"
       sodipodi:type="arc"
       id="path4323"
       style="opacity:1;fill:none;fill-opacity:1;stroke:#000000;stroke-width:0.5698927;stroke-miterlimit:4;stroke-dasharray:none;stroke-dashoffset:0;stroke-opacity:1" />
  </g>
  <g
     inkscape:label="Layer 1"
     inkscape:groupmode="layer"
     id="layer1"
     transform="translate(-274.9176,-387.65456)">
    <g
       id="g4189"
       inkscape:export-xdpi="66.381279"
       inkscape:export-ydpi="66.381279"
       inkscape:export-filename="C:\Users\Raynier-ADMIN\Pictures\Dataverse-Logo-64.png">
      <path
         sodipodi:open="true"
         d="m 320.60675,421.6412 a 8.9533091,8.9533091 0 0 1 -11.48512,-5.32178 8.9533091,8.9533091 0 0 1 5.31502,-11.48824 8.9533091,8.9533091 0 0 1 11.49137,5.30827 8.9533091,8.9533091 0 0 1 -5.30152,11.49449"
         sodipodi:end="1.217252"
         sodipodi:start="1.2196024"
         sodipodi:ry="8.9533091"
         sodipodi:rx="8.9533091"
         sodipodi:cy="413.23438"
         sodipodi:cx="317.52664"
         sodipodi:type="arc"
         id="path4147"
         style="opacity:1;fill:#000000;fill-opacity:1;stroke:#000000;stroke-width:0.15193494;stroke-miterlimit:4;stroke-dasharray:none;stroke-dashoffset:0;stroke-opacity:1" />
      <path
         sodipodi:open="true"
         d="m 294.59322,406.62724 a 3.3226562,3.3906236 0 0 1 -4.26223,-2.01536 3.3226562,3.3906236 0 0 1 1.97245,-4.3506 3.3226562,3.3906236 0 0 1 4.26455,2.01024 3.3226562,3.3906236 0 0 1 -1.96744,4.35297"
         sodipodi:end="1.217252"
         sodipodi:start="1.2196024"
         sodipodi:ry="3.3906236"
         sodipodi:rx="3.3226562"
         sodipodi:cy="403.44357"
         sodipodi:cx="293.45016"
         sodipodi:type="arc"
         id="path4147-1"
         style="opacity:1;fill:#000000;fill-opacity:1;stroke:#000000;stroke-width:0.05695824;stroke-miterlimit:4;stroke-dasharray:none;stroke-dashoffset:0;stroke-opacity:1" />
      <path
         sodipodi:open="true"
         d="m 337.15036,400.36187 a 4.5269055,4.7054815 0 0 1 -5.80702,-2.7969 4.5269055,4.7054815 0 0 1 2.68734,-6.03773 4.5269055,4.7054815 0 0 1 5.81018,2.7898 4.5269055,4.7054815 0 0 1 -2.68051,6.04102"
         sodipodi:end="1.217252"
         sodipodi:start="1.2196024"
         sodipodi:ry="4.7054815"
         sodipodi:rx="4.5269055"
         sodipodi:cy="395.9436"
         sodipodi:cx="335.59302"
         sodipodi:type="arc"
         id="path4147-1-8"
         style="opacity:1;fill:#000000;fill-opacity:1;stroke:#000000;stroke-width:0.07832076;stroke-miterlimit:4;stroke-dasharray:none;stroke-dashoffset:0;stroke-opacity:1" />
      <path
         sodipodi:open="true"
         d="m 338.28293,425.71826 a 4.7046924,4.7047009 0 0 1 -6.03508,-2.79644 4.7046924,4.7047009 0 0 1 2.79288,-6.03673 4.7046924,4.7047009 0 0 1 6.03837,2.78934 4.7046924,4.7047009 0 0 1 -2.78579,6.04001"
         sodipodi:end="1.217252"
         sodipodi:start="1.2196024"
         sodipodi:ry="4.7047009"
         sodipodi:rx="4.7046924"
         sodipodi:cy="421.30072"
         sodipodi:cx="336.66443"
         sodipodi:type="arc"
         id="path4147-1-8-5"
         style="opacity:1;fill:#000000;fill-opacity:1;stroke:#000000;stroke-width:0.07983728;stroke-miterlimit:4;stroke-dasharray:none;stroke-dashoffset:0;stroke-opacity:1" />
      <path
         sodipodi:open="true"
         d="m 320.12981,442.86042 a 4.882494,4.7039351 0 0 1 -6.26317,-2.79598 4.882494,4.7039351 0 0 1 2.89844,-6.03575 4.882494,4.7039351 0 0 1 6.26657,2.78889 4.882494,4.7039351 0 0 1 -2.89107,6.03903"
         sodipodi:end="1.217252"
         sodipodi:start="1.2196024"
         sodipodi:ry="4.7039351"
         sodipodi:rx="4.882494"
         sodipodi:cy="438.4436"
         sodipodi:cx="318.45013"
         sodipodi:type="arc"
         id="path4147-1-8-5-5"
         style="opacity:1;fill:#000000;fill-opacity:1;stroke:#000000;stroke-width:0.08132529;stroke-miterlimit:4;stroke-dasharray:none;stroke-dashoffset:0;stroke-opacity:1" />
      <path
         sodipodi:open="true"
         d="m 301.43323,445.58139 a 11.785714,11.785714 0 0 1 -15.11847,-7.00533 11.785714,11.785714 0 0 1 6.99645,-15.12259 11.785714,11.785714 0 0 1 15.12669,6.98756 11.785714,11.785714 0 0 1 -6.97867,15.1308"
         sodipodi:end="1.217252"
         sodipodi:start="1.2196024"
         sodipodi:ry="11.785714"
         sodipodi:rx="11.785714"
         sodipodi:cy="434.51505"
         sodipodi:cx="297.37872"
         sodipodi:type="arc"
         id="path4147-8"
         style="opacity:1;fill:#000000;fill-opacity:1;stroke:#000000;stroke-width:0.19999999;stroke-miterlimit:4;stroke-dasharray:none;stroke-dashoffset:0;stroke-opacity:1" />
      <path
         d="m 287.00362,456.93794 a 1.8674818,1.8674818 0 0 1 -2.39556,-1.11001 1.8674818,1.8674818 0 0 1 1.10861,-2.39622 1.8674818,1.8674818 0 0 1 2.39687,1.1072 1.8674818,1.8674818 0 0 1 -1.1058,2.39752"
         sodipodi:open="true"
         sodipodi:end="1.217252"
         sodipodi:start="1.2196029"
         sodipodi:ry="1.8674818"
         sodipodi:rx="1.8674818"
         sodipodi:cy="455.18445"
         sodipodi:cx="286.36118"
         sodipodi:type="arc"
         id="path4224"
         style="opacity:1;fill:#d5741a;fill-opacity:1;stroke:#000000;stroke-width:0.11619888;stroke-miterlimit:4;stroke-dasharray:none;stroke-dashoffset:0;stroke-opacity:1" />
      <path
         d="m 338.66473,408.20418 a 1.8674818,1.8674818 0 0 1 -2.39557,-1.11002 1.8674818,1.8674818 0 0 1 1.10861,-2.39622 1.8674818,1.8674818 0 0 1 2.39687,1.1072 1.8674818,1.8674818 0 0 1 -1.10579,2.39752"
         sodipodi:open="true"
         sodipodi:end="1.217252"
         sodipodi:start="1.2196029"
         sodipodi:ry="1.8674818"
         sodipodi:rx="1.8674818"
         sodipodi:cy="406.45068"
         sodipodi:cx="338.02228"
         sodipodi:type="arc"
         id="path4224-4"
         style="opacity:1;fill:#d5741a;fill-opacity:1;stroke:#000000;stroke-width:0.11619888;stroke-miterlimit:4;stroke-dasharray:none;stroke-dashoffset:0;stroke-opacity:1" />
      <path
         d="m 350.31927,403.91295 a 1.8674818,1.8674818 0 0 1 -2.39557,-1.11002 1.8674818,1.8674818 0 0 1 1.10861,-2.39622 1.8674818,1.8674818 0 0 1 2.39687,1.10721 1.8674818,1.8674818 0 0 1 -1.10579,2.39752"
         sodipodi:open="true"
         sodipodi:end="1.217252"
         sodipodi:start="1.2196029"
         sodipodi:ry="1.8674818"
         sodipodi:rx="1.8674818"
         sodipodi:cy="402.15945"
         sodipodi:cx="349.67682"
         sodipodi:type="arc"
         id="path4224-4-6"
         style="opacity:1;fill:#d5741a;fill-opacity:1;stroke:#000000;stroke-width:0.11619888;stroke-miterlimit:4;stroke-dasharray:none;stroke-dashoffset:0;stroke-opacity:1" />
      <path
         d="m 363.94888,400.08522 a 1.8674818,1.8674818 0 0 1 -2.39557,-1.11001 1.8674818,1.8674818 0 0 1 1.10861,-2.39622 1.8674818,1.8674818 0 0 1 2.39687,1.1072 1.8674818,1.8674818 0 0 1 -1.10579,2.39752"
         sodipodi:open="true"
         sodipodi:end="1.217252"
         sodipodi:start="1.2196029"
         sodipodi:ry="1.8674818"
         sodipodi:rx="1.8674818"
         sodipodi:cy="398.33173"
         sodipodi:cx="363.30643"
         sodipodi:type="arc"
         id="path4224-4-63"
         style="opacity:1;fill:#d5741a;fill-opacity:1;stroke:#000000;stroke-width:0.11619888;stroke-miterlimit:4;stroke-dasharray:none;stroke-dashoffset:0;stroke-opacity:1" />
      <path
         inkscape:connector-curvature="0"
         id="path4279"
         d="m 293.44931,403.59173 25.00128,10.6066"
         style="fill:none;fill-rule:evenodd;stroke:#000000;stroke-width:2.20000005;stroke-linecap:butt;stroke-linejoin:miter;stroke-miterlimit:4;stroke-dasharray:none;stroke-opacity:1" />
      <path
         inkscape:connector-curvature="0"
         id="path4281"
         d="m 336.12826,395.76305 -18.68782,17.67767 -0.25254,0.75761"
         style="fill:none;fill-rule:evenodd;stroke:#000000;stroke-width:2.20000005;stroke-linecap:butt;stroke-linejoin:miter;stroke-miterlimit:4;stroke-dasharray:none;stroke-opacity:1" />
      <path
         inkscape:connector-curvature="0"
         id="path4283"
         d="m 337.13841,421.77448 -19.69797,-8.33376"
         style="fill:none;fill-rule:evenodd;stroke:#000000;stroke-width:2.20000005;stroke-linecap:butt;stroke-linejoin:miter;stroke-miterlimit:4;stroke-dasharray:none;stroke-opacity:1" />
      <path
         inkscape:connector-curvature="0"
         id="path4285"
         d="m 296.47977,435.41154 21.21321,-21.97082"
         style="fill:none;fill-rule:evenodd;stroke:#000000;stroke-width:2.20000005;stroke-linecap:butt;stroke-linejoin:miter;stroke-miterlimit:4;stroke-dasharray:none;stroke-opacity:1" />
      <path
         inkscape:connector-curvature="0"
         id="path4287"
         d="m 318.70313,438.69453 -0.75762,-25.25381"
         style="fill:none;fill-rule:evenodd;stroke:#000000;stroke-width:2.20000005;stroke-linecap:butt;stroke-linejoin:miter;stroke-miterlimit:4;stroke-dasharray:none;stroke-opacity:1" />
      <path
         d="m 281.02929,468.21556 a 1.8674818,1.8674818 0 0 1 -2.39557,-1.11001 1.8674818,1.8674818 0 0 1 1.10861,-2.39622 1.8674818,1.8674818 0 0 1 2.39687,1.1072 1.8674818,1.8674818 0 0 1 -1.10579,2.39752"
         sodipodi:open="true"
         sodipodi:end="1.217252"
         sodipodi:start="1.2196029"
         sodipodi:ry="1.8674818"
         sodipodi:rx="1.8674818"
         sodipodi:cy="466.46207"
         sodipodi:cx="280.38684"
         sodipodi:type="arc"
         id="path4224-8"
         style="opacity:1;fill:#d5741a;fill-opacity:1;stroke:#000000;stroke-width:0.11619888;stroke-miterlimit:4;stroke-dasharray:none;stroke-dashoffset:0;stroke-opacity:1" />
    </g>
  </g>
</svg>
